<svg width="104" height="116" viewBox="0 0 104 116" fill="none" xmlns="http://www.w3.org/2000/svg">
<path d="M103.741 33.3533C103.555 34.021 103.354 34.6887 103.154 35.343C103.144 35.3947 103.126 35.4442 103.1 35.4899C103.087 35.5433 103.074 35.5967 103.06 35.6368C103.034 35.7112 103.012 35.7869 102.994 35.8638C102.887 36.1977 102.78 36.5182 102.673 36.8253C102.593 37.0657 102.513 37.306 102.433 37.5331C102.396 37.6649 102.352 37.7941 102.299 37.9203C102.281 38.0072 102.254 38.0922 102.219 38.174V38.1874C102.219 38.2007 102.206 38.2141 102.192 38.2408C102.177 38.2709 102.163 38.3022 102.152 38.3343C102.139 38.361 102.126 38.4011 102.112 38.4278C101.965 38.8417 101.819 39.2691 101.658 39.683C101.498 40.097 101.338 40.5377 101.164 40.9516C100.87 41.7128 100.55 42.474 100.229 43.2218C100.083 43.5824 99.9223 43.9429 99.7487 44.2901C99.6018 44.6507 99.4415 45.0112 99.2679 45.3584C99.2412 45.4118 99.2145 45.4786 99.1878 45.532C98.8139 46.3466 98.4133 47.1478 97.9993 47.9357C97.9451 48.0643 97.8827 48.1892 97.8124 48.3096C97.3717 49.1643 96.9177 49.9922 96.4369 50.8201C96.4238 50.8754 96.3962 50.9262 96.3568 50.967C96.1298 51.3944 95.8762 51.8083 95.6357 52.2089C95.3152 52.7565 94.9947 53.2906 94.6475 53.8248C94.5674 53.9583 94.4872 54.0918 94.3938 54.2254C94.1135 54.6794 93.8062 55.1468 93.4991 55.6008C92.8981 56.5089 92.284 57.4036 91.6295 58.285C91.5984 58.3445 91.5578 58.3986 91.5093 58.4452C91.4115 58.5984 91.3044 58.7455 91.1888 58.8859C91.1755 58.9126 91.1488 58.9393 91.1354 58.966C91.042 59.0995 90.9351 59.2331 90.8416 59.3533C90.7482 59.4734 90.668 59.5936 90.5746 59.7138C90.5614 59.7405 90.5345 59.7672 90.5212 59.7939C90.441 59.9008 90.3609 59.9942 90.2674 60.1011C90.0805 60.3548 89.8935 60.5952 89.6932 60.8355C89.5895 60.9836 89.4779 61.1264 89.3594 61.2629C89.2792 61.3697 89.1991 61.4765 89.1056 61.5834C89.0122 61.6902 88.9187 61.8104 88.8252 61.9172C88.7584 62.0107 88.6783 62.1042 88.6115 62.1843L88.5848 62.211C88.4513 62.3712 88.3311 62.5315 88.1977 62.6784C87.9038 63.0256 87.61 63.3728 87.3029 63.72C87.2361 63.8001 87.1827 63.8669 87.1159 63.9336C87.062 64.0037 87.004 64.0705 86.9423 64.1339C86.6218 64.5079 86.288 64.8684 85.9408 65.2423C85.8607 65.3358 85.7805 65.4293 85.6871 65.5228C85.5936 65.6162 85.5001 65.7231 85.4066 65.8165C85.2197 66.0168 85.0327 66.2171 84.8324 66.4175C84.7461 66.522 84.6524 66.6202 84.552 66.7112C84.0979 67.192 83.6172 67.6727 83.1231 68.1535C82.9095 68.3671 82.6824 68.5941 82.4421 68.8212C81.2002 70.023 79.9182 71.1714 78.5828 72.2932C78.5462 72.3284 78.5059 72.3598 78.4626 72.3866C78.249 72.5736 78.0219 72.7605 77.7949 72.9475C77.608 73.1077 77.4077 73.268 77.2074 73.4282C77.1539 73.4683 77.1005 73.5084 77.0605 73.5351C76.7266 73.8155 76.3794 74.0826 76.0456 74.3363C75.5515 74.7236 75.0574 75.0975 74.5633 75.458C74.4298 75.5648 74.2829 75.6583 74.1493 75.7518C74.0992 75.7961 74.0457 75.8363 73.9891 75.872C73.9638 75.9015 73.9318 75.9245 73.8956 75.9388C73.7888 76.0189 73.6819 76.099 73.5751 76.1658C73.2413 76.4061 72.9208 76.6332 72.5869 76.8602C72.4375 76.9761 72.2815 77.0831 72.1195 77.1807C71.7191 77.4477 71.3317 77.7148 70.931 77.9686C70.7576 78.0887 70.5972 78.1956 70.4236 78.3024C70.25 78.4092 70.0764 78.5294 69.9028 78.6362C69.6624 78.7831 69.4221 78.9434 69.1817 79.0769C69.0475 79.1784 68.9045 79.2677 68.7544 79.344L68.5541 79.4642C68.4739 79.5176 68.3805 79.571 68.3003 79.6244C67.2187 80.2654 66.1236 80.8797 65.0153 81.4806C64.5612 81.721 64.0939 81.9613 63.6265 82.2017C63.5448 82.2514 63.4601 82.296 63.3728 82.3353C63.3594 82.3353 63.3594 82.3486 63.346 82.3486C63.4931 81.7878 63.6265 81.2135 63.76 80.6393C63.8668 80.1853 63.9737 79.7313 64.0672 79.2772C64.2942 78.2757 64.4811 77.2608 64.6547 76.2325V76.1925C64.6598 76.1873 64.6637 76.1809 64.6659 76.1741C64.6682 76.1671 64.669 76.1598 64.6681 76.1524C64.6948 76.0189 64.7215 75.872 64.7348 75.7384C64.7749 75.5114 64.815 75.2978 64.8417 75.0708C64.9619 74.3496 65.0688 73.6152 65.1623 72.8807C65.1623 72.8407 65.1755 72.8006 65.1755 72.7605C65.2556 72.1196 65.3358 71.4786 65.4025 70.8376C65.4159 70.7575 65.4159 70.664 65.4293 70.5839L65.4693 70.0631C65.5361 69.3419 65.5895 68.6075 65.6429 67.8864V67.8196C65.6963 66.9917 65.7364 66.1504 65.7631 65.3224C65.7898 64.4945 65.8032 63.6399 65.8032 62.7986C65.8032 62.1042 65.7898 61.4231 65.7764 60.7421C65.7631 60.4349 65.7631 60.1411 65.7364 59.834C65.723 59.2865 65.6963 58.739 65.6696 58.1915C65.6429 57.8843 65.6296 57.5638 65.6028 57.2567C65.5895 57.0564 65.5761 56.8694 65.5628 56.6691C65.5361 56.2952 65.5094 55.9347 65.4693 55.5741L65.4293 55.1735C65.4159 54.9465 65.3892 54.7061 65.3625 54.4657C65.3558 54.3449 65.3424 54.2246 65.3224 54.1052C65.2824 53.6245 65.2156 53.1304 65.1488 52.6496C65.0687 51.9953 64.9752 51.3276 64.8684 50.6732C64.8016 50.2059 64.7215 49.7518 64.6414 49.2845C64.5746 48.8705 64.5078 48.4699 64.4277 48.0559C64.3476 47.6419 64.2541 47.2012 64.1608 46.7739V46.7472C64.1072 46.4935 64.0538 46.2264 64.0004 45.9727C63.987 45.9059 63.9737 45.8525 63.9603 45.7857C63.9069 45.5454 63.8535 45.2916 63.7867 45.0513C63.7754 44.9699 63.7575 44.8896 63.7333 44.8109C63.6265 44.3702 63.533 43.9429 63.4262 43.5156C63.3995 43.4221 63.3861 43.342 63.3594 43.2619C63.2526 42.8479 63.1457 42.4339 63.0256 42.0066C62.9721 41.8196 62.9187 41.6193 62.8653 41.419L62.665 40.738C62.6116 40.5377 62.5582 40.3374 62.4915 40.1504C62.4799 40.0864 62.462 40.0239 62.438 39.9635C62.3979 39.8299 62.3579 39.7097 62.3178 39.5762C62.3044 39.5495 62.3044 39.5094 62.2911 39.4827C62.1843 39.1355 62.0908 38.8017 61.9706 38.4678C61.9439 38.3877 61.9172 38.3209 61.8905 38.2408C61.8638 38.1607 61.8371 38.0539 61.797 37.947C61.6635 37.5063 61.5166 37.0657 61.343 36.6383C61.3029 36.4914 61.2361 36.3446 61.1827 36.1977C61.1678 36.1686 61.1587 36.1368 61.1561 36.1042C60.9959 35.6368 60.8222 35.1694 60.6352 34.7154V34.702C60.5417 34.4483 60.4483 34.1946 60.3414 33.9409C60.2613 33.7138 60.1678 33.4735 60.061 33.2465C59.874 32.7657 59.6737 32.2983 59.4734 31.8309L59.3933 31.6306C59.2331 31.2567 59.0595 30.8695 58.8859 30.4822L58.8057 30.322C58.7657 30.2285 58.7256 30.1484 58.6855 30.0549C58.6722 30.0415 58.6722 30.0148 58.6588 30.0015C58.4852 29.5875 58.2849 29.1735 58.0846 28.7596C58.0642 28.7254 58.0463 28.6897 58.0312 28.6527C57.9778 28.5459 57.911 28.4257 57.8576 28.3055C57.2967 27.1437 56.7092 26.0087 56.0815 24.8869C55.8946 24.5397 55.7076 24.1925 55.5073 23.8587C55.4272 23.6984 55.3337 23.5382 55.2403 23.378C55.0667 23.0842 54.8931 22.8037 54.7195 22.51C54.6393 22.3631 54.5459 22.2162 54.4524 22.0693C54.0918 21.455 53.7179 20.8541 53.3307 20.2532C52.8633 19.532 52.3959 18.8376 51.9151 18.1299C51.7682 17.9296 51.6214 17.7293 51.4746 17.5156C51.4033 17.3982 51.323 17.2866 51.2341 17.1818C50.9672 16.7945 50.6866 16.4206 50.4062 16.0333C50.2993 15.8731 50.1791 15.7262 50.059 15.5659L49.8186 15.2455C49.4313 14.738 49.0441 14.2306 48.6434 13.7365L48.1627 13.1356C48.0025 12.9353 47.8422 12.735 47.6686 12.5346C47.5618 12.4011 47.455 12.2809 47.3481 12.1474C46.9742 11.6934 46.587 11.2527 46.1863 10.812C45.7724 10.3313 45.345 9.85055 44.9044 9.38316C44.4904 8.91578 44.0497 8.46174 43.5957 8.00771C43.1684 7.54033 42.7143 7.09964 42.2603 6.65896C42.2469 6.64561 42.2469 6.64562 42.2469 6.63227L42.2336 6.6189C41.7929 6.17822 41.3389 5.7509 40.8715 5.32357C40.6311 5.0832 40.3908 4.86953 40.1504 4.64251L44.899 1.89297C47.0589 0.652675 49.5061 0 51.9966 0C54.4872 0 56.9345 0.652675 59.0942 1.89297L67.6807 6.84724C67.6961 6.85284 67.7098 6.86202 67.7208 6.87397H67.7341L67.7475 6.8873L93.7474 21.897L96.899 23.7131C98.6634 24.7363 100.187 26.1264 101.368 27.7895C102.548 29.4528 103.358 31.3502 103.741 33.3533Z" fill="url(#paint0_linear_533_105)"/>
<path d="M65.7998 62.7967C65.7998 63.638 65.7864 64.4793 65.7597 65.3206C65.733 66.1486 65.693 66.9897 65.6395 67.8177V67.8846C65.5861 68.6057 65.5327 69.3401 65.4659 70.0612L65.4259 70.582C65.4125 70.6622 65.4125 70.7556 65.3992 70.8358C65.3324 71.4767 65.2523 72.1177 65.1722 72.7587C65.1722 72.7988 65.1588 72.8388 65.1588 72.8789C65.0653 73.6134 64.9585 74.3478 64.8383 75.0689C64.8116 75.2959 64.7715 75.5096 64.7315 75.7366C64.7181 75.8702 64.6914 76.0171 64.6647 76.1506C64.6655 76.1578 64.6648 76.1652 64.6626 76.1721C64.6602 76.179 64.6564 76.1853 64.6514 76.1907V76.2307C64.4778 77.259 64.2908 78.2739 64.0638 79.2754C63.9703 79.7294 63.8635 80.1835 63.7567 80.6375C63.6231 81.2117 63.4896 81.7859 63.3427 82.3468C52.3622 87.9076 40.2232 90.7948 27.9149 90.7731C27.1938 90.7731 26.486 90.7597 25.7649 90.7464C25.5246 90.733 25.2708 90.733 25.0171 90.7197H24.8969L23.3345 90.6395C23.0808 90.6262 22.8137 90.6128 22.56 90.5861C22.2529 90.5728 21.9591 90.5459 21.6519 90.5192C21.1712 90.4926 20.6771 90.4392 20.1964 90.3992C20.0495 90.3857 19.9026 90.3724 19.7557 90.3457C19.6088 90.3457 19.4619 90.319 19.3017 90.3057C19.1414 90.2923 18.9545 90.2656 18.7942 90.2389C18.7538 90.2477 18.7116 90.2431 18.674 90.2254C18.3669 90.1989 18.0598 90.1588 17.7526 90.1187L16.898 89.9985C16.4974 89.9585 16.1101 89.8917 15.7228 89.8249C15.2688 89.7582 14.8281 89.6913 14.3875 89.5978C14.374 89.6022 14.3597 89.6033 14.3458 89.601C14.3318 89.5987 14.3187 89.593 14.3073 89.5846C13.7064 89.4911 13.1188 89.3841 12.5446 89.2639C12.4763 89.2525 12.4093 89.2346 12.3443 89.2107C12.2573 89.2071 12.1716 89.189 12.0906 89.1572C11.4629 89.0371 10.8353 88.9034 10.221 88.77C10.1292 88.7414 10.0355 88.7191 9.9406 88.7032C9.67458 88.6506 9.41158 88.5837 9.15273 88.5029C8.59186 88.3694 8.031 88.2225 7.4835 88.0756C6.84251 87.9153 6.21488 87.7416 5.58725 87.5547V87.5414C5.56636 87.5317 5.54349 87.5271 5.52048 87.5281H5.50178L5.48843 87.5146H5.47508C5.45419 87.505 5.43131 87.5004 5.40831 87.5014L5.39495 87.488C4.12634 87.1141 2.88443 86.7135 1.64252 86.2728C0.565632 84.2309 0.00189971 81.9576 0 79.6493V36.0223C0.000606492 33.5272 0.657316 31.0763 1.90424 28.9152C3.15118 26.7541 4.94449 24.9591 7.10425 23.7099L40.1417 4.64062C40.3821 4.86764 40.6224 5.08132 40.8628 5.32169C41.3302 5.74901 41.7842 6.17633 42.2249 6.61701L42.2383 6.63038C42.2383 6.64373 42.2383 6.64372 42.2516 6.65707C42.7056 7.09775 43.1463 7.55179 43.587 8.00582C44.0277 8.45985 44.4683 8.91389 44.8957 9.38127C45.323 9.84866 45.7637 10.3294 46.1776 10.8101C46.5783 11.2508 46.9655 11.6915 47.3394 12.1455C47.4463 12.279 47.5531 12.3992 47.6599 12.5328C47.8335 12.7331 47.9938 12.9334 48.154 13.1337L48.6347 13.7345C49.0354 14.2286 49.4226 14.7362 49.8099 15.2437L50.0503 15.5641C50.1704 15.7244 50.2906 15.8712 50.3975 16.0314C50.6779 16.4187 50.9583 16.7927 51.2254 17.18C51.3142 17.2847 51.3946 17.3963 51.4658 17.5138C51.6127 17.7141 51.7595 17.9144 51.9064 18.1281C52.3872 18.8358 52.8546 19.5302 53.322 20.2514C53.6959 20.8523 54.0831 21.4532 54.4437 22.0675C54.5372 22.2144 54.6306 22.3613 54.7107 22.5082C54.8576 22.7352 54.9912 22.9755 55.1247 23.2159C55.1648 23.2693 55.1915 23.3226 55.2315 23.376C55.325 23.5363 55.4185 23.6966 55.4986 23.8569C55.6989 24.1907 55.8859 24.5379 56.0728 24.8851C56.7005 26.0069 57.288 27.1419 57.8489 28.3037C57.9023 28.4239 57.9691 28.5441 58.0225 28.6509C58.0376 28.6878 58.0555 28.7234 58.0759 28.7576C58.2762 29.1582 58.4632 29.5857 58.6501 29.9997C58.6635 30.013 58.6635 30.0396 58.6768 30.0529C58.7169 30.1464 58.757 30.2267 58.797 30.3202C58.9973 30.7608 59.1843 31.1882 59.3846 31.6288L59.4647 31.8291C59.665 32.2965 59.8653 32.7639 60.0523 33.2447C60.1458 33.4717 60.2392 33.712 60.3327 33.9391C60.4262 34.1928 60.533 34.4465 60.6265 34.7002V34.7136C60.8135 35.181 60.9737 35.6349 61.1473 36.1022C61.15 36.135 61.1591 36.1667 61.174 36.1959C61.2274 36.3427 61.2942 36.4896 61.3343 36.6365C61.5079 37.0639 61.6548 37.5045 61.7883 37.9452C61.8284 38.052 61.8551 38.1455 61.8818 38.239C61.9085 38.3325 61.9352 38.3859 61.9619 38.466C62.0821 38.7999 62.1756 39.1336 62.2824 39.4808C62.2957 39.5075 62.2957 39.5477 62.3091 39.5744C62.3492 39.7079 62.3892 39.8281 62.4293 39.9616C62.4532 40.022 62.4711 40.0846 62.4827 40.1485C62.5495 40.3354 62.6029 40.5357 62.6563 40.736L62.8566 41.4172C62.91 41.6175 62.9634 41.8178 63.0168 42.0048C63.137 42.4321 63.2439 42.8461 63.3507 43.26C63.3774 43.3402 63.3908 43.4203 63.4175 43.5138C63.5243 43.9411 63.6178 44.3684 63.7246 44.8091C63.7488 44.8876 63.7665 44.968 63.778 45.0495C63.8448 45.2898 63.8982 45.5434 63.9516 45.7838C63.9516 45.8105 63.965 45.8373 63.965 45.8774C63.9757 45.908 63.9846 45.9392 63.9917 45.9709C64.0451 46.2246 64.0985 46.4915 64.1519 46.7453V46.7721C64.2454 47.1994 64.3389 47.6268 64.419 48.0541C64.4991 48.4814 64.5659 48.8687 64.6327 49.2826C64.7128 49.75 64.7929 50.2041 64.8597 50.6714C64.9665 51.3258 65.06 51.9935 65.1401 52.6478C65.2069 53.1285 65.2737 53.6226 65.3137 54.1034C65.3336 54.2226 65.347 54.3431 65.3538 54.4638C65.3805 54.7042 65.4072 54.9312 65.4205 55.1716L65.4606 55.5723C65.5007 55.9329 65.5274 56.2934 65.5541 56.6673C65.5674 56.8676 65.5808 57.0546 65.5941 57.2549C65.6208 57.562 65.6342 57.8825 65.6609 58.1897C65.6876 58.7372 65.7143 59.2847 65.7277 59.8322C65.7544 60.126 65.7544 60.4331 65.7677 60.7402C65.7864 61.4213 65.7998 62.1023 65.7998 62.7967Z" fill="url(#paint1_linear_533_105)"/>
<path d="M104.001 36.0238V79.6509C104.003 82.1447 103.348 84.5953 102.104 86.7563C100.859 88.9175 99.0679 90.7132 96.9098 91.9631L59.105 113.77C57.1956 114.876 55.0536 115.52 52.8506 115.65C50.6478 115.78 48.4449 115.392 46.4189 114.518C45.8979 114.306 45.3936 114.056 44.9099 113.77L42.6664 112.475H42.6531L7.11309 91.9631C4.79936 90.611 2.90807 88.6412 1.65137 86.2744C2.89328 86.7151 4.13518 87.1157 5.4038 87.4896L5.41715 87.5029C5.44016 87.502 5.46304 87.5065 5.48392 87.5162C5.49418 87.5172 5.5037 87.522 5.51063 87.5296H5.52399C5.54698 87.5287 5.56987 87.5332 5.59075 87.543V87.5562C6.21839 87.7432 6.84602 87.9169 7.487 88.0772C8.11463 88.2641 8.74226 88.4242 9.38325 88.5578C9.66368 88.6379 9.94411 88.7048 10.2245 88.7715C10.9323 88.9317 11.6267 89.092 12.3478 89.2122C12.4128 89.2361 12.4798 89.254 12.5481 89.2655C13.149 89.3991 13.7634 89.5059 14.391 89.5994C14.9385 89.7062 15.4994 89.7998 16.0602 89.8799C16.2739 89.92 16.5009 89.9467 16.7279 89.9734C17.409 90.0802 18.1034 90.1737 18.7978 90.2405C19.0648 90.2805 19.3319 90.3073 19.5856 90.334C20.3468 90.4141 21.1213 90.4942 21.8825 90.5343C21.9923 90.5563 22.1043 90.5652 22.2164 90.5608C23.1511 90.641 24.0859 90.6945 25.0207 90.7212C25.9821 90.7613 26.9436 90.7746 27.9185 90.7746C40.2266 90.7964 52.3658 87.9092 63.3462 82.3483C63.3596 82.3483 63.3596 82.335 63.3729 82.335C65.2158 81.4136 67.0096 80.4164 68.7545 79.3437C69.1418 79.1167 69.5291 78.8763 69.903 78.636C70.0766 78.5291 70.2502 78.4223 70.4238 78.3021C70.5974 78.1819 70.7576 78.0885 70.9312 77.9683C71.3318 77.7146 71.7191 77.4475 72.1197 77.1804C72.1492 77.1673 72.1763 77.1493 72.1998 77.1269C72.6672 76.8198 73.1213 76.4992 73.5753 76.1654C73.6629 76.1122 73.7475 76.0543 73.829 75.9919C73.9358 75.9118 74.0427 75.845 74.1495 75.7515C74.7905 75.2975 75.4181 74.8301 76.0457 74.336C76.3796 74.0823 76.7268 73.8151 77.0606 73.5347C77.301 73.3477 77.5547 73.1475 77.7951 72.9472C77.9687 72.8003 78.1423 72.6668 78.3159 72.5065C78.4227 72.4264 78.5296 72.3463 78.6364 72.2528C79.7047 71.3448 80.7329 70.4232 81.7478 69.4884C82.2152 69.0478 82.6826 68.5937 83.1233 68.1531C84.5121 66.791 85.8429 65.3844 87.1161 63.9334C87.3431 63.6796 87.5568 63.4259 87.7704 63.1722C88.0642 62.8517 88.3313 62.5177 88.6117 62.1839C88.772 61.9836 88.9456 61.7834 89.1058 61.5831C89.1993 61.4763 89.2794 61.3694 89.3595 61.2626C89.5732 60.9955 89.7869 60.7284 89.9872 60.4614C90.1875 60.221 90.3744 59.9673 90.5747 59.7135C90.6549 59.5934 90.7483 59.4732 90.8418 59.353C91.0421 59.0993 91.2291 58.8455 91.416 58.5785C92.1371 57.6036 92.8315 56.6155 93.4992 55.6006C93.8064 55.1465 94.1002 54.6925 94.3939 54.2251C94.8213 53.5574 95.2352 52.8896 95.6358 52.2085C95.9029 51.7679 96.17 51.314 96.4237 50.8599C97.4386 49.0705 98.3867 47.2365 99.2681 45.3581C99.4283 45.0109 99.6019 44.6504 99.7488 44.2898C100.243 43.2215 100.697 42.1532 101.124 41.0582L101.685 39.616C101.832 39.2154 101.979 38.8281 102.112 38.4275C102.126 38.4008 102.139 38.3607 102.153 38.334C102.163 38.3018 102.177 38.2706 102.193 38.2405C102.206 38.2138 102.219 38.2003 102.219 38.187V38.1738C102.263 38.0652 102.298 37.9536 102.326 37.8399C102.353 37.7865 102.366 37.7331 102.393 37.6663C102.513 37.3325 102.62 36.9986 102.727 36.6514C102.82 36.3977 102.9 36.1306 102.994 35.8636C103.034 35.7434 103.074 35.6098 103.101 35.4896C103.126 35.4438 103.144 35.3943 103.154 35.3428C103.354 34.6884 103.555 34.0207 103.742 33.353C103.916 34.2325 104.002 35.1271 104.001 36.0238Z" fill="url(#paint2_linear_533_105)"/>
<g style="mix-blend-mode:multiply" opacity="0.15">
<g style="mix-blend-mode:multiply" opacity="0.15">
<path d="M65.7948 62.7997C65.805 69.394 64.9794 75.963 63.3377 82.3497C46.0558 91.0626 26.1692 93.1021 7.47852 88.0786C28.4307 89.5074 81.7793 85.9285 40.142 4.64355C48.2354 12.0137 54.6984 20.9946 59.1161 31.0099C63.5338 41.0252 65.8088 51.8534 65.7948 62.7997Z" fill="black"/>
</g>
</g>
<g style="mix-blend-mode:multiply" opacity="0.15">
<g style="mix-blend-mode:multiply" opacity="0.15">
<path d="M103.757 33.3551C100.785 43.8688 95.6623 53.6511 88.7135 62.0826C81.7646 70.5139 73.1411 77.4111 63.3887 82.337C64.2834 81.6293 91.9659 59.5554 93.7687 21.8975L96.9202 23.7136C98.6837 24.7373 100.207 26.128 101.386 27.7913C102.566 29.4548 103.375 31.3521 103.757 33.3551Z" fill="black"/>
</g>
</g>
<g style="mix-blend-mode:multiply" opacity="0.25">
<g style="mix-blend-mode:multiply" opacity="0.25">
<path d="M102.151 38.333C95.3567 57.437 81.4703 73.1931 63.3714 82.334C63.3645 82.3417 63.355 82.3464 63.3447 82.3473C46.0627 91.0603 26.1762 93.0999 7.48548 88.0761C6.84449 87.9025 6.21686 87.7289 5.58923 87.5553C5.56252 87.542 5.53581 87.542 5.52246 87.5286C5.54547 87.5278 5.56835 87.5324 5.58923 87.542C6.13674 87.6622 7.81932 88.0628 10.4367 88.5435C14.8656 89.3606 19.3543 89.8116 23.8573 89.8923C25.2461 89.9323 26.7017 89.919 28.184 89.8789C29.7063 89.8255 31.2554 89.7454 32.8311 89.6252C36.1452 89.3314 39.4399 88.8499 42.6996 88.183C46.1828 87.4619 49.6137 86.5072 52.9687 85.3252C56.4223 84.1262 59.787 82.6849 63.0376 81.0119C63.2779 80.8918 63.5183 80.7582 63.7587 80.638C66.7716 79.054 69.6878 77.2926 72.4921 75.3633C75.3964 73.3093 78.1828 71.0935 80.8382 68.7264C83.2889 66.4768 85.6116 64.0915 87.7956 61.5821C89.8922 59.1784 91.6949 56.7747 93.3108 54.5045C94.8732 52.1943 96.2352 50.031 97.3837 48.068C97.9178 47.0664 98.4386 46.1317 98.906 45.277C99.36 44.3957 99.7339 43.5811 100.095 42.8466C100.829 41.3777 101.31 40.1892 101.684 39.388C101.897 38.8939 102.052 38.5333 102.151 38.333Z" fill="black"/>
</g>
</g>
<g style="mix-blend-mode:multiply" opacity="0.25">
<g style="mix-blend-mode:multiply" opacity="0.25">
<path d="M64.878 73.0252C64.9981 70.942 65.105 67.9774 65.0249 64.4385C64.9848 62.6758 64.7978 60.7797 64.7044 58.7098C64.4773 56.7201 64.277 54.6236 63.9165 52.4469C63.7696 51.3519 63.5826 50.2569 63.3423 49.1485C63.1019 48.0401 62.9016 46.9184 62.6212 45.7967C62.1137 43.5399 61.4594 41.2963 60.7516 39.0662L59.6299 35.7412C59.2026 34.6595 58.7752 33.5777 58.3613 32.5094C57.8939 31.4545 57.4399 30.3997 56.9858 29.3714C56.5318 28.3432 55.9976 27.355 55.5303 26.3534C55.0629 25.3519 54.502 24.4303 54.0079 23.4956C53.5138 22.5608 53.0064 21.6529 52.4722 20.7982C51.444 19.0489 50.389 17.4598 49.4142 15.9775C48.3859 14.5486 47.4645 13.1998 46.5832 12.0514C45.6885 10.9297 44.954 9.90141 44.2729 9.10018C43.1512 7.73808 42.4301 6.87008 42.2432 6.64307C51.3136 15.5582 58.0909 26.5371 61.9953 38.6413C65.8998 50.7453 66.8156 63.6149 64.6643 76.15C64.691 75.7894 64.7845 74.6944 64.878 73.0252Z" fill="black"/>
</g>
</g>
<g style="mix-blend-mode:screen" opacity="0.4">
<g style="mix-blend-mode:screen" opacity="0.4">
<path d="M67.7184 6.87262C67.5181 6.77915 66.156 6.09811 63.8992 4.92297C62.6707 4.28199 61.2017 3.48075 59.4924 2.66617C57.6245 1.72891 55.6181 1.09767 53.55 0.796594C51.1457 0.548502 48.7197 0.969023 46.5392 2.0118C44.5754 2.98736 42.6793 4.09379 40.8638 5.32358C40.7674 5.37658 40.6738 5.43452 40.5834 5.49718C40.1694 5.7509 39.7421 6.01796 39.3148 6.27169C34.2536 9.30301 28.8186 12.4679 23.3836 15.6327C20.646 17.1951 17.9219 18.7442 15.2377 20.2799C12.5803 21.8556 9.80271 23.2444 7.41237 24.7801C5.10197 26.1468 3.23372 28.1494 2.03076 30.549C1.10014 32.797 0.623602 35.207 0.628609 37.6399C0.575194 39.9768 0.508423 42.1669 0.4283 44.0765C0.348177 45.9861 0.28141 47.6687 0.227995 49.0441C0.10781 51.795 0.000976562 53.3574 0.000976562 53.3574V36.0241C0.00158306 33.5292 0.658292 31.0782 1.90522 28.9171C3.15215 26.7561 4.94546 24.9609 7.10523 23.7118L40.1427 4.64251L44.8913 1.89297C47.0512 0.652675 49.4983 0 51.9889 0C54.4795 0 56.9266 0.652675 59.0865 1.89297L67.673 6.84724C67.6901 6.85167 67.7057 6.86042 67.7184 6.87262Z" fill="white"/>
</g>
</g>
<g style="mix-blend-mode:multiply" opacity="0.25">
<g style="mix-blend-mode:multiply" opacity="0.25">
<path d="M103.991 48.2422V79.6503C103.993 82.1443 103.338 84.5949 102.094 86.7559C100.849 88.9171 99.0577 90.7128 96.8996 91.9626L59.0949 113.769C57.1855 114.876 55.0436 115.52 52.8406 115.65C50.6376 115.779 48.4349 115.392 46.4087 114.517C45.8879 114.306 45.3835 114.056 44.8997 113.769L42.6562 112.474C42.7898 112.541 42.9367 112.621 43.1103 112.715C43.818 113.075 44.8596 113.596 46.2084 114.143C47.8178 114.817 49.5388 115.184 51.2828 115.225C53.5129 115.205 55.7075 114.665 57.6927 113.649C59.8961 112.581 62.1796 111.045 64.6901 109.576C67.1739 108.081 69.7913 106.505 72.5155 104.876C77.9371 101.631 83.7728 98.2523 89.6084 94.847C92.5356 93.3247 95.3674 91.6256 98.0881 89.7592C100.483 87.8952 102.097 85.205 102.615 82.2143C103.018 79.2541 103.197 76.2678 103.149 73.2807C103.216 70.3829 103.283 67.6452 103.336 65.108C103.47 60.0469 103.67 55.8404 103.764 52.8758C103.91 49.9246 103.991 48.2422 103.991 48.2422Z" fill="black"/>
</g>
</g>
<g style="mix-blend-mode:screen" opacity="0.4">
<g style="mix-blend-mode:screen" opacity="0.4">
<path d="M5.58573 87.5441V87.556C5.55351 87.5461 5.52194 87.5343 5.49121 87.5205C5.52363 87.5242 5.55541 87.5321 5.58573 87.5441Z" fill="white"/>
</g>
</g>
<g style="mix-blend-mode:screen" opacity="0.4">
<g style="mix-blend-mode:screen" opacity="0.4">
<path d="M102.204 38.1904C102.177 38.2839 102.043 38.7112 101.803 39.4457C101.509 40.2736 101.202 41.5422 100.561 43.0512C100.254 43.8124 99.9469 44.6804 99.5597 45.5885C99.1724 46.4965 98.7184 47.4847 98.251 48.5263C97.7569 49.5679 97.1827 50.6496 96.6085 51.8114C96.0075 52.9598 95.2864 54.1084 94.5787 55.3369C93.8309 56.5388 93.0296 57.7939 92.1616 59.0492C91.2536 60.2911 90.3722 61.5997 89.3173 62.855C87.1967 65.5422 84.8943 68.081 82.4267 70.4533C79.7659 72.9828 76.9374 75.3295 73.9603 77.4775C70.8657 79.6507 67.6315 81.618 64.2788 83.3665C60.8898 85.0845 57.3822 86.5572 53.7826 87.7733C50.3073 88.9406 46.7498 89.8467 43.1396 90.4841C39.77 91.1012 36.3604 91.4761 32.9373 91.6059C31.2947 91.6726 29.7056 91.6993 28.1966 91.6593C26.6476 91.6192 25.1787 91.5392 23.7632 91.4323C19.2127 91.0555 14.7067 90.2599 10.3025 89.0554C8.71335 88.6413 7.49815 88.214 6.65686 87.9335C6.13606 87.7599 5.7755 87.6264 5.5752 87.5596C24.9121 93.2639 45.6998 91.3401 63.6614 82.1842C81.6232 73.0282 95.3926 57.3365 102.137 38.3373C102.148 38.3053 102.161 38.274 102.177 38.2438C102.19 38.2185 102.204 38.2038 102.204 38.1904Z" fill="white"/>
</g>
</g>
<g style="mix-blend-mode:screen" opacity="0.4">
<g style="mix-blend-mode:screen" opacity="0.4">
<path d="M66.6775 58.669C66.6641 60.6988 66.6775 62.6618 66.5439 64.4646C66.3581 67.3629 65.9744 70.2452 65.3955 73.0912C64.9682 75.1343 64.6477 76.2828 64.6477 76.2828V76.1893C64.6528 76.1841 64.6566 76.1777 64.6589 76.1708C64.6612 76.1639 64.662 76.1566 64.661 76.1492C64.7278 75.7887 64.7812 75.4281 64.8346 75.0676C64.9548 74.3464 65.0617 73.612 65.1551 72.8775C65.1551 72.8375 65.1685 72.7974 65.1685 72.7573C65.262 72.0362 65.3421 71.3018 65.4222 70.5807L65.4623 70.0599C65.529 69.3387 65.5825 68.6043 65.6359 67.8832V67.8164C65.6893 66.9885 65.7294 66.1472 65.7561 65.3192C65.7828 64.4913 65.7961 63.6367 65.7961 62.7954C65.7961 60.7389 65.716 58.6957 65.5558 56.6659C65.5157 56.1585 65.4756 55.6644 65.4222 55.1703C65.3554 54.329 65.262 53.4877 65.1418 52.6464C65.0617 51.9921 64.9682 51.3244 64.8614 50.6701C64.7946 50.2027 64.7145 49.7486 64.6343 49.2813C64.5008 48.44 64.3406 47.5853 64.1536 46.744C64.0201 46.0897 63.8865 45.4487 63.7263 44.8077C63.6061 44.2869 63.4859 43.7661 63.3524 43.2587C63.1387 42.4174 62.9117 41.5761 62.658 40.7348C62.5511 40.3342 62.431 39.9603 62.3108 39.573C62.1772 39.119 62.0437 38.6783 61.8834 38.2376C61.8567 38.1441 61.83 38.0507 61.79 37.9438C61.603 37.3563 61.4027 36.7687 61.1757 36.1945C60.8285 35.2063 60.4546 34.2181 60.054 33.2433C59.867 32.7625 59.6667 32.2952 59.4664 31.8278C59.226 31.2402 58.959 30.6393 58.6785 30.0517C58.4248 29.4641 58.1444 28.8899 57.8506 28.3023C57.2897 27.1406 56.7021 26.0055 56.0745 24.8838C55.5537 23.9223 55.0196 22.9875 54.4453 22.0661C52.6952 19.1634 50.7546 16.3796 48.6364 13.7333C48.3293 13.3327 47.9954 12.9321 47.6616 12.5315C47.5548 12.3979 47.4479 12.2777 47.3411 12.1442C46.9672 11.6902 46.5799 11.2495 46.1793 10.8088C45.7653 10.3281 45.338 9.84737 44.8973 9.37998C44.4834 8.9126 44.0427 8.45857 43.5887 8.00454C43.1613 7.53715 42.7073 7.09646 42.2533 6.65578C42.2399 6.64243 42.2266 6.62908 42.2266 6.61572C42.4269 6.77597 43.2815 7.53714 44.657 8.73899C46.7806 10.7179 48.7788 12.8275 50.6395 15.0553C51.7612 16.4708 52.9898 17.9932 54.1382 19.7158C54.7525 20.5571 55.3401 21.4518 55.9009 22.3866C56.4618 23.3214 57.0761 24.2428 57.5969 25.2443C58.7052 27.2207 59.7735 29.3172 60.735 31.4939C61.1757 32.6023 61.6297 33.7107 62.0838 34.8324C62.4844 35.9675 62.885 37.1025 63.2856 38.251C63.9934 40.5612 64.6343 42.8981 65.1284 45.235C65.4 46.3809 65.614 47.5398 65.7694 48.707C65.9831 49.8555 66.13 51.0039 66.2368 52.1256C66.5439 54.3704 66.584 56.5858 66.6775 58.669Z" fill="white"/>
</g>
</g>
<defs>
<linearGradient id="paint0_linear_533_105" x1="71.9459" y1="79.137" x2="71.9459" y2="12.3523" gradientUnits="userSpaceOnUse">
<stop stop-color="#F8A700"/>
<stop offset="1" stop-color="#FCFC53"/>
</linearGradient>
<linearGradient id="paint1_linear_533_105" x1="59.2198" y1="70.8765" x2="-0.111703" y2="47.9116" gradientUnits="userSpaceOnUse">
<stop stop-color="#F80300"/>
<stop offset="0.033" stop-color="#F81000"/>
<stop offset="0.158" stop-color="#F93F00"/>
<stop offset="0.288" stop-color="#FA6800"/>
<stop offset="0.419" stop-color="#FA8900"/>
<stop offset="0.554" stop-color="#FBA300"/>
<stop offset="0.693" stop-color="#FBB500"/>
<stop offset="0.838" stop-color="#FBC000"/>
<stop offset="1" stop-color="#FCC400"/>
</linearGradient>
<linearGradient id="paint2_linear_533_105" x1="91.1046" y1="54.9212" x2="46.5046" y2="111.467" gradientUnits="userSpaceOnUse">
<stop stop-color="#F80300"/>
<stop offset="0.033" stop-color="#F81000"/>
<stop offset="0.158" stop-color="#F93F00"/>
<stop offset="0.288" stop-color="#FA6800"/>
<stop offset="0.419" stop-color="#FA8900"/>
<stop offset="0.554" stop-color="#FBA300"/>
<stop offset="0.693" stop-color="#FBB500"/>
<stop offset="0.838" stop-color="#FBC000"/>
<stop offset="1" stop-color="#FCC400"/>
</linearGradient>
</defs>
</svg>
